<svg xmlns="http://www.w3.org/2000/svg"><symbol id="about-page" viewBox="0 0 60 60"><path d="M48.014 42.889l-9.553-4.776A2.63 2.63 0 0 1 37 35.748v-3.381c.229-.28.47-.599.719-.951a22.886 22.886 0 0 0 2.954-5.799A3.968 3.968 0 0 0 43 22v-4c0-.963-.36-1.896-1-2.625v-5.319c.056-.55.276-3.824-2.092-6.525C37.854 1.188 34.521 0 30 0s-7.854 1.188-9.908 3.53C17.724 6.231 17.944 9.506 18 10.056v5.319c-.64.729-1 1.662-1 2.625v4c0 1.217.553 2.352 1.497 3.109.916 3.627 2.833 6.36 3.503 7.237v3.309c0 .968-.528 1.856-1.377 2.32l-8.921 4.866A9.018 9.018 0 0 0 7 50.762V54c0 4.746 15.045 6 23 6s23-1.254 23-6v-3.043a8.973 8.973 0 0 0-4.986-8.068zM51 54c0 1.357-7.412 4-21 4S9 55.357 9 54v-3.238a7.016 7.016 0 0 1 3.659-6.164l8.921-4.866A4.644 4.644 0 0 0 24 35.655v-4.019l-.233-.278c-.024-.029-2.475-2.994-3.41-7.065l-.091-.396-.341-.22A1.995 1.995 0 0 1 19 22v-4c0-.561.238-1.084.67-1.475l.33-.297V10l-.009-.131c-.003-.027-.343-2.799 1.605-5.021C23.253 2.958 26.081 2 30 2c3.905 0 6.727.951 8.386 2.828 1.947 2.201 1.625 5.017 1.623 5.041L40 16.228l.33.298c.432.39.67.913.67 1.474v4c0 .873-.572 1.637-1.422 1.899l-.498.153-.16.495a20.934 20.934 0 0 1-2.834 5.713c-.297.421-.586.794-.837 1.079l-.249.284v4.125c0 1.77.983 3.361 2.566 4.153l9.553 4.776A6.982 6.982 0 0 1 51 50.957V54z"/></symbol><symbol id="contacts-page" viewBox="0 0 31.012 31.012"><path d="M25.109 21.51a.495.495 0 0 1-.342-.136l-5.754-5.398a.5.5 0 1 1 .685-.728l5.754 5.398a.5.5 0 0 1-.343.864zM5.902 21.51a.5.5 0 0 1-.343-.864l5.756-5.398a.5.5 0 0 1 .685.728l-5.756 5.398a.495.495 0 0 1-.342.136z"/><path d="M28.512 26.529H2.5a2.503 2.503 0 0 1-2.5-2.5V6.982c0-1.379 1.122-2.5 2.5-2.5h26.012c1.378 0 2.5 1.121 2.5 2.5v17.047c0 1.379-1.122 2.5-2.5 2.5zM2.5 5.482c-.827 0-1.5.673-1.5 1.5v17.047c0 .827.673 1.5 1.5 1.5h26.012c.827 0 1.5-.673 1.5-1.5V6.982c0-.827-.673-1.5-1.5-1.5H2.5z"/><path d="M15.506 18.018c-.665 0-1.33-.221-1.836-.662L.83 6.155a.501.501 0 0 1-.049-.706.503.503 0 0 1 .706-.048l12.84 11.2c.639.557 1.719.557 2.357 0L29.508 5.419a.5.5 0 0 1 .658.754L17.342 17.355c-.507.442-1.171.663-1.836.663z"/></symbol><symbol id="experience-page" viewBox="0 0 508.333 508.333"><path d="M492.455 166.437l-204.721-70.19c-21.646-7.421-45.489-7.421-67.135 0l-204.721 70.19C6.232 169.744 0 178.47 0 188.667s6.233 18.922 15.878 22.229l94.789 32.499v70.757c0 12.917 14.921 22.706 45.616 29.928 26.233 6.172 60.996 9.572 97.884 9.572s71.651-3.399 97.884-9.572c13.029-3.066 23.206-6.596 30.616-10.63v14.436c-9.29 3.138-16 11.93-16 22.266v40a7.5 7.5 0 0 0 7.5 7.5h32a7.5 7.5 0 0 0 7.5-7.5v-40c0-10.336-6.71-19.128-16-22.266V243.395l94.788-32.499c9.646-3.307 15.879-12.033 15.879-22.229s-6.233-18.923-15.879-22.23zm-143.84 163.042c-25.141 5.916-58.683 9.173-94.449 9.173s-69.308-3.258-94.449-9.173c-27.992-6.586-34.051-13.875-34.051-15.327v-12.701c7.41 4.034 17.586 7.564 30.616 10.63 26.233 6.172 60.996 9.572 97.884 9.572s71.651-3.399 97.884-9.572c13.029-3.066 23.206-6.596 30.616-10.63v12.701c.001 1.452-6.059 8.741-34.051 15.327zm50.052 73.173h-17v-32.5c0-4.687 3.813-8.5 8.5-8.5s8.5 3.813 8.5 8.5v32.5zm-16-120.5c0 1.451-6.059 8.741-34.051 15.327-25.141 5.916-58.683 9.173-94.449 9.173s-69.308-3.258-94.449-9.173c-27.992-6.586-34.051-13.875-34.051-15.327v-33.614l94.932 32.548c10.823 3.711 22.196 5.566 33.568 5.566s22.745-1.855 33.568-5.566l94.932-32.548v33.614zm104.923-85.445l-89.912 30.827a7.468 7.468 0 0 0-1.078-.477l-103.867-35.612c.606-1.692.935-3.46.935-5.293 0-13.397-16.981-23.5-39.5-23.5s-39.5 10.103-39.5 23.5 16.981 23.5 39.5 23.5c10.979 0 20.633-2.406 27.653-6.42a7.516 7.516 0 0 0 1.914.986l90.974 31.191-91.839 31.487c-18.509 6.347-38.896 6.347-57.405 0l-204.721-70.19c-5.329-1.827-5.743-6.616-5.743-8.04s.414-6.214 5.743-8.041l204.72-70.19c9.256-3.173 18.978-4.759 28.703-4.759 9.723 0 19.449 1.587 28.703 4.759l204.721 70.19c5.33 1.827 5.744 6.617 5.744 8.041s-.416 6.214-5.745 8.041zm-208.923-10.555c0 2.185-8.424 8.5-24.5 8.5s-24.5-6.315-24.5-8.5 8.424-8.5 24.5-8.5 24.5 6.316 24.5 8.5z"/></symbol><symbol id="home-page" viewBox="0 0 539.077 539.077"><path d="M460.462 527.846h-134.77a11.224 11.224 0 0 1-11.231-11.231v-146h-89.846v146a11.224 11.224 0 0 1-11.231 11.231H78.615a11.224 11.224 0 0 1-11.231-11.231V292a11.224 11.224 0 0 1 11.231-11.231A11.224 11.224 0 0 1 89.846 292v213.385h112.308v-146a11.224 11.224 0 0 1 11.231-11.231h112.308a11.224 11.224 0 0 1 11.231 11.231v146h112.308V303.231A11.224 11.224 0 0 1 460.463 292a11.224 11.224 0 0 1 11.231 11.231v213.385c-.002 6.207-5.025 11.23-11.232 11.23zM527.846 292a11.195 11.195 0 0 1-7.94-3.29L269.538 38.343 19.171 288.71c-4.387 4.387-11.494 4.387-15.881 0-4.387-4.387-4.387-11.494 0-15.881L261.598 14.521c4.387-4.387 11.494-4.387 15.881 0l258.308 258.308c4.387 4.387 4.387 11.494 0 15.881a11.197 11.197 0 0 1-7.941 3.29zM438 134.769a11.224 11.224 0 0 1-11.231-11.231V56.154h-67.385c-6.208 0-11.231-5.023-11.231-11.231s5.023-11.231 11.231-11.231H438a11.224 11.224 0 0 1 11.231 11.231v78.615A11.224 11.224 0 0 1 438 134.769z"/></symbol><symbol id="portfolio-page" viewBox="0 0 472.688 472.688"><path d="M440.363 356.539H28.4c-8.572 0-15.958-6.574-16.38-15.135-.451-9.151 6.864-16.74 15.918-16.74h109.535s5.456.034 6.038-.145l94.231-29.084a5.993 5.993 0 0 0 2.473-1.49l153.563-153.563c10.865-10.864 16.336-25.684 15.071-41.213a51.673 51.673 0 0 0-12-29.081c-9.977-11.808-24.157-18.44-39.371-18.587-14.251-.137-27.891 5.806-37.968 15.884L166.583 220.312a6.001 6.001 0 0 0-1.491 2.473l-27.741 89.88H28.532c-15.202 0-28.068 11.896-28.519 27.092-.469 15.789 12.239 28.783 27.925 28.783h411.927c11.007 0 20.393 8.542 20.809 19.541.437 11.563-8.843 21.109-20.31 21.109h-303.32a6 6 0 1 0 0 12h302.675c18.086 0 33.272-14.8 32.964-32.883-.298-17.569-14.682-31.768-32.32-31.768zm-83.401-293.04c10.702 0 20.764 4.167 28.331 11.735 7.567 7.567 11.734 17.629 11.734 28.331 0 9.936-3.597 19.316-10.167 26.665 1.347-14.865-3.651-30.203-15.006-41.558s-26.693-16.354-41.559-15.006c7.35-6.57 16.731-10.167 26.667-10.167zm6.408 33.659c15.615 15.616 15.62 41.021.017 56.645L240.835 276.355c-5.081-28.646-28.113-51.547-56.804-56.521L306.708 97.156c15.623-15.62 41.04-15.62 56.662.002zM175.152 230.88c29.705 1.39 53.218 24.758 54.676 54.44l-37.763 11.655c-3.236-13.788-14.321-25.17-28.552-28.384l11.639-37.711zm-15.193 49.226c10.323 1.918 18.635 10.125 20.62 20.414l-29.755 9.184 9.135-29.598z"/></symbol><symbol id="right-straight-arrow" viewBox="0 0 199.405 199.405"><path d="M99.703 199.405l99.702-99.703L99.703 0 71.418 28.285l53.244 53.244H0v36.347h124.662L71.418 171.12z"/></symbol><symbol id="sent-mail" viewBox="0 0 334.5 334.5"><path d="M332.797 13.699a5.003 5.003 0 0 0-5.404-.776L2.893 163.695a5.001 5.001 0 0 0-.096 9.023l91.833 45.068a5 5 0 0 0 5.196-.484l89.287-66.734-70.094 72.1a5 5 0 0 0-1.4 3.868l6.979 90.889a5 5 0 0 0 8.771 2.884l48.742-56.482 60.255 28.79a5 5 0 0 0 6.926-3.014L334.27 18.956a5 5 0 0 0-1.473-5.257z"/></symbol><symbol id="skills-page" viewBox="0 0 297.384 297.384"><path d="M265.53 78.112a5.75 5.75 0 0 0-.06-.397c-.008-.045-.013-.091-.02-.135a5.57 5.57 0 0 0-.116-.462c-.006-.019-.009-.038-.015-.058a5.478 5.478 0 0 0-.162-.45c-.007-.018-.012-.037-.02-.055a5.623 5.623 0 0 0-.193-.408c-.013-.025-.023-.053-.037-.077-.064-.122-.139-.239-.212-.355-.022-.035-.042-.072-.065-.106a4.797 4.797 0 0 0-.228-.308c-.032-.041-.06-.085-.093-.124a5.39 5.39 0 0 0-.305-.337c-.02-.02-.035-.041-.055-.061L190.776 1.608v-.001a5.62 5.62 0 0 0-.398-.36c-.03-.025-.063-.047-.094-.07a5.657 5.657 0 0 0-.338-.25c-.028-.02-.059-.035-.087-.053a5.49 5.49 0 0 0-.376-.225c-.018-.01-.038-.018-.057-.027a5.267 5.267 0 0 0-.43-.203c-.008-.004-.018-.006-.025-.01a5.35 5.35 0 0 0-.479-.172l-.02-.004a5.298 5.298 0 0 0-.5-.126c-.021-.005-.044-.006-.065-.011a5.55 5.55 0 0 0-.468-.069c-.1-.01-.201-.011-.303-.015-.079-.003-.159-.012-.241-.012H37.315a5.488 5.488 0 0 0-5.488 5.488v286.408a5.488 5.488 0 0 0 5.488 5.487h222.754a5.488 5.488 0 0 0 5.488-5.487V78.659l-.002-.021c0-.178-.009-.353-.025-.526zm-18.708-4.938l-54.435.006-.004-54.442 54.439 54.436zm7.759 213.235H42.802V10.976h138.605l.004 67.693a5.486 5.486 0 0 0 5.488 5.487l67.682-.008v202.261z"/><path d="M112.038 76.817c12.582 0 22.817-10.238 22.817-22.823s-10.235-22.823-22.817-22.823c-12.583 0-22.82 10.238-22.82 22.823-.001 12.585 10.237 22.823 22.82 22.823zm0-34.671c6.529 0 11.842 5.315 11.842 11.849 0 6.532-5.313 11.848-11.842 11.848-6.531 0-11.844-5.315-11.844-11.848 0-6.534 5.312-11.849 11.844-11.849zM86.541 118.47a5.488 5.488 0 0 0 5.488-5.487v-9.626c0-6.222 5.064-11.283 11.286-11.283h17.582c6.226 0 11.291 5.062 11.291 11.283v9.626a5.487 5.487 0 1 0 10.975 0v-9.626c0-12.273-9.988-22.258-22.267-22.258h-17.582c-12.275 0-22.262 9.984-22.262 22.258v9.626a5.49 5.49 0 0 0 5.489 5.487zM81.054 157.2a5.487 5.487 0 0 0 5.487 5.487h124.305a5.488 5.488 0 1 0 0-10.975H86.541a5.488 5.488 0 0 0-5.487 5.488zM210.846 232.915H86.541a5.488 5.488 0 0 0 0 10.976h124.305a5.488 5.488 0 1 0 0-10.976zM210.846 192.313H86.541a5.488 5.488 0 0 0 0 10.976h124.305a5.488 5.488 0 1 0 0-10.976z"/></symbol></svg>